<svg xmlns="http://www.w3.org/2000/svg" width="563.178" height="159.659" viewBox="0 0 563.178 159.659">
  <g id="Group_160" data-name="Group 160" transform="translate(-1045.955 -2214.065)">
    <rect id="Rectangle_296" data-name="Rectangle 296" width="12" height="12" transform="translate(1598.257 2329.042) rotate(25)" fill="#f15144"/>
    <rect id="Rectangle_303" data-name="Rectangle 303" width="12" height="12" transform="translate(1460.639 2250.491) rotate(150)" fill="#f15144"/>
    <rect id="Rectangle_297" data-name="Rectangle 297" width="12" height="12" transform="matrix(-0.799, -0.602, 0.602, -0.799, 1542.55, 2373.724)" fill="#f15144"/>
    <g id="Rectangle_293" data-name="Rectangle 293" transform="translate(1054.139 2311.726) rotate(43)" fill="#fff" stroke="#ee3f48" stroke-width="3">
      <rect width="12" height="12" stroke="none"/>
      <rect x="1.5" y="1.5" width="9" height="9" fill="none"/>
    </g>
    <rect id="Rectangle_302" data-name="Rectangle 302" width="12" height="12" transform="matrix(-0.951, 0.309, -0.309, -0.951, 1388.489, 2301.528)" fill="#2d2d2d"/>
    <rect id="Rectangle_298" data-name="Rectangle 298" width="12" height="12" transform="translate(1484.091 2323.99) rotate(25)" fill="#2d2d2d"/>
    <rect id="Rectangle_291" data-name="Rectangle 291" width="15.381" height="7.172" transform="matrix(0.574, -0.819, 0.819, 0.574, 1123.67, 2286.523)" fill="#2d2d2d"/>
    <g id="Rectangle_305" data-name="Rectangle 305" transform="translate(1317.423 2310.74) rotate(150)" fill="#fff" stroke="#ee3f48" stroke-width="3">
      <rect width="12" height="12" stroke="none"/>
      <rect x="1.5" y="1.5" width="9" height="9" fill="none"/>
    </g>
    <rect id="Rectangle_301" data-name="Rectangle 301" width="12" height="12" transform="matrix(-0.799, -0.602, 0.602, -0.799, 1432.304, 2352.755)" fill="#f15144"/>
    <g id="Rectangle_295" data-name="Rectangle 295" transform="translate(1157.977 2221.659) rotate(-43)" fill="#fff" stroke="#ee3f48" stroke-width="3">
      <rect width="11.134" height="12.808" stroke="none"/>
      <rect x="1.5" y="1.5" width="8.134" height="9.808" fill="none"/>
    </g>
    <rect id="Rectangle_304" data-name="Rectangle 304" width="16.762" height="2.655" transform="matrix(-0.951, -0.309, 0.309, -0.951, 1286.522, 2295.395)" fill="#2d2d2d"/>
    <rect id="Rectangle_299" data-name="Rectangle 299" width="12" height="12" transform="translate(1501.782 2269.978) rotate(25)" fill="#f15144"/>
    <rect id="Rectangle_292" data-name="Rectangle 292" width="15.381" height="7.172" transform="matrix(0.574, -0.819, 0.819, 0.574, 1242.718, 2344.455)" fill="#2d2d2d"/>
    <rect id="Rectangle_307" data-name="Rectangle 307" width="12" height="12" transform="translate(1374.893 2269.974) rotate(150)" fill="#f15144"/>
    <g id="Rectangle_300" data-name="Rectangle 300" transform="matrix(-0.799, -0.602, 0.602, -0.799, 1466.28, 2302.407)" fill="#fff" stroke="#ee3f48" stroke-width="3">
      <rect width="12" height="12" stroke="none"/>
      <rect x="1.5" y="1.5" width="9" height="9" fill="none"/>
    </g>
    <g id="Rectangle_294" data-name="Rectangle 294" transform="translate(1207.672 2265.557) rotate(-43)" fill="#fff" stroke="#ee3f48" stroke-width="3">
      <rect width="11.134" height="12.808" stroke="none"/>
      <rect x="1.5" y="1.5" width="8.134" height="9.808" fill="none"/>
    </g>
    <rect id="Rectangle_306" data-name="Rectangle 306" width="12" height="12" transform="matrix(-0.951, 0.309, -0.309, -0.951, 1258.422, 2302.758)" fill="#2d2d2d"/>
  </g>
</svg>
