<svg xmlns="http://www.w3.org/2000/svg" width="839.46" height="159.659" viewBox="0 0 839.46 159.659">
  <g id="Group_158" data-name="Group 158" transform="translate(-770.673 -1990.065)">
    <g id="Rectangle_284" data-name="Rectangle 284" transform="translate(770.673 2063)" fill="#fff" stroke="#ee3f48" stroke-width="3">
      <rect width="12" height="12" stroke="none"/>
      <rect x="1.5" y="1.5" width="9" height="9" fill="none"/>
    </g>
    <rect id="Rectangle_296" data-name="Rectangle 296" width="12" height="12" transform="translate(1599.257 2105.042) rotate(25)" fill="#f15144"/>
    <rect id="Rectangle_290" data-name="Rectangle 290" width="12" height="12" transform="matrix(0.574, 0.819, -0.819, 0.574, 1005.69, 2043.085)" fill="#f15144"/>
    <rect id="Rectangle_303" data-name="Rectangle 303" width="12" height="12" transform="translate(1461.639 2026.491) rotate(150)" fill="#f15144"/>
    <rect id="Rectangle_289" data-name="Rectangle 289" width="12" height="12" transform="matrix(0.978, -0.208, 0.208, 0.978, 794.266, 2107.133)" fill="#f15144"/>
    <rect id="Rectangle_297" data-name="Rectangle 297" width="12" height="12" transform="matrix(-0.799, -0.602, 0.602, -0.799, 1543.55, 2149.724)" fill="#f15144"/>
    <g id="Rectangle_293" data-name="Rectangle 293" transform="translate(1055.139 2087.726) rotate(43)" fill="#fff" stroke="#ee3f48" stroke-width="3">
      <rect width="12" height="12" stroke="none"/>
      <rect x="1.5" y="1.5" width="9" height="9" fill="none"/>
    </g>
    <rect id="Rectangle_302" data-name="Rectangle 302" width="12" height="12" transform="matrix(-0.951, 0.309, -0.309, -0.951, 1389.489, 2077.528)" fill="#2d2d2d"/>
    <rect id="Rectangle_286" data-name="Rectangle 286" width="12" height="12" transform="translate(962.896 2093.98)" fill="#f15144"/>
    <rect id="Rectangle_298" data-name="Rectangle 298" width="12" height="12" transform="translate(1485.091 2099.99) rotate(25)" fill="#2d2d2d"/>
    <rect id="Rectangle_291" data-name="Rectangle 291" width="15.381" height="7.172" transform="matrix(0.574, -0.819, 0.819, 0.574, 1124.67, 2062.523)" fill="#2d2d2d"/>
    <g id="Rectangle_305" data-name="Rectangle 305" transform="translate(1318.423 2086.74) rotate(150)" fill="#fff" stroke="#ee3f48" stroke-width="3">
      <rect width="12" height="12" stroke="none"/>
      <rect x="1.5" y="1.5" width="9" height="9" fill="none"/>
    </g>
    <rect id="Rectangle_287" data-name="Rectangle 287" width="15.843" height="6.082" transform="matrix(-0.978, -0.208, 0.208, -0.978, 890.022, 2131.754)" fill="#2d2d2d"/>
    <rect id="Rectangle_301" data-name="Rectangle 301" width="12" height="12" transform="matrix(-0.799, -0.602, 0.602, -0.799, 1433.304, 2128.755)" fill="#f15144"/>
    <g id="Rectangle_295" data-name="Rectangle 295" transform="translate(1158.977 1997.659) rotate(-43)" fill="#fff" stroke="#ee3f48" stroke-width="3">
      <rect width="11.134" height="12.808" stroke="none"/>
      <rect x="1.5" y="1.5" width="8.134" height="9.808" fill="none"/>
    </g>
    <rect id="Rectangle_304" data-name="Rectangle 304" width="16.762" height="2.655" transform="matrix(-0.951, -0.309, 0.309, -0.951, 1287.522, 2071.395)" fill="#2d2d2d"/>
    <rect id="Rectangle_285" data-name="Rectangle 285" width="12" height="12" transform="translate(881.675 2037)" fill="#f15144"/>
    <rect id="Rectangle_299" data-name="Rectangle 299" width="12" height="12" transform="translate(1502.782 2045.978) rotate(25)" fill="#f15144"/>
    <rect id="Rectangle_292" data-name="Rectangle 292" width="15.381" height="7.172" transform="matrix(0.574, -0.819, 0.819, 0.574, 1243.718, 2120.455)" fill="#2d2d2d"/>
    <rect id="Rectangle_307" data-name="Rectangle 307" width="12" height="12" transform="translate(1375.893 2045.974) rotate(150)" fill="#f15144"/>
    <g id="Rectangle_288" data-name="Rectangle 288" transform="matrix(-0.978, -0.208, 0.208, -0.978, 966.929, 2076.479)" fill="#fff" stroke="#ee3f48" stroke-width="3">
      <rect width="15.843" height="6.082" stroke="none"/>
      <rect x="1.5" y="1.5" width="12.843" height="3.082" fill="none"/>
    </g>
    <g id="Rectangle_300" data-name="Rectangle 300" transform="matrix(-0.799, -0.602, 0.602, -0.799, 1467.28, 2078.407)" fill="#fff" stroke="#ee3f48" stroke-width="3">
      <rect width="12" height="12" stroke="none"/>
      <rect x="1.5" y="1.5" width="9" height="9" fill="none"/>
    </g>
    <g id="Rectangle_294" data-name="Rectangle 294" transform="translate(1208.672 2041.557) rotate(-43)" fill="#fff" stroke="#ee3f48" stroke-width="3">
      <rect width="11.134" height="12.808" stroke="none"/>
      <rect x="1.5" y="1.5" width="8.134" height="9.808" fill="none"/>
    </g>
    <rect id="Rectangle_306" data-name="Rectangle 306" width="12" height="12" transform="matrix(-0.951, 0.309, -0.309, -0.951, 1259.422, 2078.758)" fill="#2d2d2d"/>
  </g>
</svg>
