<svg xmlns="http://www.w3.org/2000/svg" width="483.122" height="133.625" viewBox="0 0 483.122 133.625">
  <g id="Group_159" data-name="Group 159" transform="translate(-1100.416 -1777.099)">
    <rect id="Rectangle_308" data-name="Rectangle 308" width="12" height="12" rx="6" transform="translate(1564.933 1810.904) rotate(-25)" fill="#fff" stroke="#ee3f48" stroke-linecap="round" stroke-width="4"/>
    <rect id="Rectangle_315" data-name="Rectangle 315" width="12" height="12" rx="6" transform="translate(1284.226 1910.723) rotate(-150)" fill="#f15144"/>
    <rect id="Rectangle_309" data-name="Rectangle 309" width="12" height="12" rx="6" transform="matrix(-0.799, 0.602, -0.602, -0.799, 1502.452, 1786.682)" fill="#f15144"/>
    <rect id="Rectangle_314" data-name="Rectangle 314" width="12" height="12" rx="6" transform="matrix(-0.951, -0.309, 0.309, -0.951, 1285.995, 1860.706)" fill="#fff" stroke="#ee3f48" stroke-linecap="round" stroke-width="4"/>
    <rect id="Rectangle_310" data-name="Rectangle 310" width="12" height="12" rx="6" transform="translate(1414.185 1815.956) rotate(-25)" fill="#2d2d2d"/>
    <rect id="Rectangle_317" data-name="Rectangle 317" width="12" height="12" transform="translate(1189.58 1850.475) rotate(-150)" fill="#2d2d2d"/>
    <rect id="Rectangle_313" data-name="Rectangle 313" width="12" height="12" rx="6" transform="matrix(-0.799, 0.602, -0.602, -0.799, 1356.792, 1807.651)" fill="#f15144"/>
    <rect id="Rectangle_316" data-name="Rectangle 316" width="12" height="12" transform="matrix(-0.951, -0.309, 0.309, -0.951, 1142.449, 1811.828)" fill="#2d2d2d"/>
    <rect id="Rectangle_311" data-name="Rectangle 311" width="12" height="12" rx="6" transform="translate(1437.545 1869.968) rotate(-25)" fill="#fff" stroke="#ee3f48" stroke-linecap="round" stroke-width="4"/>
    <rect id="Rectangle_319" data-name="Rectangle 319" width="12" height="12" rx="6" transform="translate(1114.893 1891.24) rotate(-150)" fill="#f15144"/>
    <rect id="Rectangle_312" data-name="Rectangle 312" width="12" height="12" rx="6" transform="matrix(-0.799, 0.602, -0.602, -0.799, 1401.682, 1857.999)" fill="#fff" stroke="#ee3f48" stroke-linecap="round" stroke-width="4"/>
    <rect id="Rectangle_318" data-name="Rectangle 318" width="12" height="12" rx="6" transform="matrix(-0.951, -0.309, 0.309, -0.951, 1114.349, 1859.476)" fill="#fff" stroke="#ee3f48" stroke-linecap="round" stroke-width="4"/>
  </g>
</svg>
